<svg width="32" height="32" viewBox="0 0 32 32" fill="none" xmlns="http://www.w3.org/2000/svg">
<path d="M20 16L7.50266 28.4973C7.24002 28.7601 6.9282 28.9685 6.585 29.1107C6.24181 29.2529 5.87396 29.3262 5.50247 29.3262C4.7522 29.3264 4.0326 29.0284 3.50199 28.498C2.97138 27.9676 2.67322 27.2481 2.6731 26.4978C2.67297 25.7475 2.97089 25.0279 3.50133 24.4973L16 12M24 20L29.3333 14.6667M28.6667 15.3333L26.1147 12.7813C25.6145 12.2814 25.3335 11.6032 25.3333 10.896V10.4373C25.3332 9.73015 25.0521 9.05198 24.552 8.552L22.3427 6.34267C20.8428 4.84309 18.8089 4.00045 16.688 4H12L13.6573 5.65733C15.1572 7.15749 15.9999 9.19197 16 11.3133V13.3333L18.6667 16H20.2293C20.9365 16.0002 21.6147 16.2812 22.1147 16.7813L24.6667 19.3333" stroke="black" stroke-width="2" stroke-linecap="round" stroke-linejoin="round"/>
</svg>
