<svg width="32" height="32" viewBox="0 0 32 32" fill="none" xmlns="http://www.w3.org/2000/svg">
<path d="M26.6666 13.3334C26.6666 19.9907 19.2813 26.9241 16.8013 29.0654C16.5702 29.2391 16.289 29.3331 15.9999 29.3331C15.7109 29.3331 15.4296 29.2391 15.1986 29.0654C12.7186 26.9241 5.33325 19.9907 5.33325 13.3334C5.33325 10.5044 6.45706 7.79133 8.45745 5.79094C10.4578 3.79055 13.1709 2.66675 15.9999 2.66675C18.8289 2.66675 21.542 3.79055 23.5424 5.79094C25.5428 7.79133 26.6666 10.5044 26.6666 13.3334Z" stroke="black" stroke-width="2" stroke-linecap="round" stroke-linejoin="round"/>
<path d="M15.9999 17.3334C18.2091 17.3334 19.9999 15.5426 19.9999 13.3334C19.9999 11.1243 18.2091 9.33341 15.9999 9.33341C13.7908 9.33341 11.9999 11.1243 11.9999 13.3334C11.9999 15.5426 13.7908 17.3334 15.9999 17.3334Z" stroke="black" stroke-width="2" stroke-linecap="round" stroke-linejoin="round"/>
</svg>
