<svg width="32" height="32" viewBox="0 0 32 32" fill="none" xmlns="http://www.w3.org/2000/svg">
<path d="M21.3334 10.6667H13.3334C12.6262 10.6667 11.9479 10.9477 11.4478 11.4478C10.9477 11.9479 10.6667 12.6262 10.6667 13.3334C10.6667 14.0407 10.9477 14.7189 11.4478 15.219C11.9479 15.7191 12.6262 16.0001 13.3334 16.0001H18.6667C19.374 16.0001 20.0523 16.281 20.5524 16.7811C21.0525 17.2812 21.3334 17.9595 21.3334 18.6667C21.3334 19.374 21.0525 20.0523 20.5524 20.5524C20.0523 21.0525 19.374 21.3334 18.6667 21.3334H10.6667M16.0001 24.0001V8.00008M29.3334 16.0001C29.3334 23.3639 23.3639 29.3334 16.0001 29.3334C8.63628 29.3334 2.66675 23.3639 2.66675 16.0001C2.66675 8.63628 8.63628 2.66675 16.0001 2.66675C23.3639 2.66675 29.3334 8.63628 29.3334 16.0001Z" stroke="black" stroke-width="2" stroke-linecap="round" stroke-linejoin="round"/>
</svg>
