<svg width="128" height="97" viewBox="0 0 128 97" fill="none" xmlns="http://www.w3.org/2000/svg">
<path d="M58.2911 3.66055C60.6783 1.80857 62.646 0.217028 62.646 0.144686C62.646 0.0723428 62.8051 0 63.0077 0C63.2102 0 63.3694 0.0868114 63.3694 0.188091C63.3694 0.274903 65.2357 1.7941 67.5072 3.5448C69.7931 5.29549 71.9778 6.98832 72.3973 7.32109C72.8024 7.6394 74.4662 8.94157 76.1011 10.2003C77.736 11.4591 79.9206 13.1375 80.9479 13.9477C81.9751 14.7435 83.1614 15.655 83.5666 15.9733C83.9861 16.3061 85.9538 17.8397 91.5962 22.2092L91.5818 27.3456L88.1963 24.7123C86.3299 23.251 84.1742 21.5726 83.3929 20.9794C82.6117 20.3862 81.4398 19.4747 80.7887 18.9538C80.1232 18.433 78.9802 17.5504 78.2424 16.9716C77.5045 16.4074 76.2603 15.438 75.4935 14.8447C74.7122 14.2371 73.9888 13.7451 73.902 13.7451C73.8007 13.7596 72.7735 14.4541 71.6305 15.3077C70.4876 16.1614 68.491 17.6372 67.2178 18.5776C65.9302 19.5326 64.4545 20.6177 62.9353 21.7028L61.749 20.9215C61.0834 20.4875 60.0996 19.8509 59.5354 19.4892C58.9711 19.1274 57.8716 18.4185 57.0758 17.9121C56.2801 17.4057 54.4716 16.2627 53.0682 15.3656C51.6504 14.4686 50.4061 13.7741 50.3193 13.803C50.2181 13.8319 49.1764 14.5698 48.0189 15.438C46.847 16.2916 44.402 18.1002 42.5935 19.4457C40.7705 20.8058 38.528 22.4697 37.6165 23.1497C36.7051 23.8297 35.6055 24.6255 34.4336 25.4647L34.4481 22.0646L37.9348 19.3879C39.8445 17.9122 41.812 16.4075 42.3041 16.0312L42.3041 16.0312C42.7533 15.6773 45.2765 13.7229 48.0312 11.5894L48.5543 11.1842C51.5057 8.8837 55.8895 5.49805 58.2911 3.66055Z" fill="#147532"/>
<path d="M123.903 81.2555C124.149 81.2265 124.742 81.1252 125.22 81.0529C125.697 80.9806 126.203 80.9082 126.348 80.8937C126.58 80.8793 126.594 81.2121 126.594 86.1603C126.594 89.3868 126.652 91.5571 126.739 91.7307C126.826 91.8898 127.129 92.0779 127.462 92.1648C127.809 92.2516 128.026 92.3818 127.997 92.4831C127.954 92.6277 127.39 92.6712 125.74 92.6712C123.903 92.6712 123.556 92.6422 123.585 92.4541C123.614 92.3384 123.831 92.2082 124.077 92.1648C124.308 92.1213 124.626 91.9911 124.771 91.8754C124.988 91.6728 125.017 91.2532 125.003 87.1731C125.003 83.9177 124.945 82.5866 124.815 82.3261C124.684 82.0802 124.467 81.9499 124.033 81.8631C123.628 81.7908 123.411 81.675 123.426 81.5304C123.44 81.4146 123.643 81.2989 123.903 81.2555Z" fill="#147532"/>
<path d="M2.22805 81.704C2.19912 81.6461 2.18465 81.5159 2.21359 81.4146C2.24252 81.2699 2.85017 81.2265 4.99142 81.2265C7.63905 81.241 7.74032 81.2555 7.74032 81.5304C7.74032 81.7474 7.61011 81.8342 7.1616 81.921C6.84331 81.9644 6.45268 82.1525 6.29353 82.3261C6.01864 82.6155 6.00417 82.8759 5.93183 88.0846C5.87396 92.6422 5.81609 93.6261 5.62801 94.0457C5.4978 94.3206 5.1795 94.798 4.90461 95.1164C4.62972 95.4202 4.15228 95.8108 3.83399 95.97C3.41442 96.2015 2.98039 96.2738 2.24252 96.2883C1.47572 96.2883 1.11403 96.216 0.766798 95.9989C0.506376 95.8398 0.231486 95.5649 0.144679 95.3768C0.0723394 95.2032 0 94.9138 0 94.7257C0 94.5521 0.101275 94.2627 0.217018 94.0746C0.361697 93.8576 0.578716 93.7563 0.897009 93.7563C1.15743 93.7563 1.49019 93.8721 1.63487 94.0167C1.77955 94.147 1.89529 94.3929 1.88083 94.5521C1.88083 94.7112 1.80849 94.9138 1.73615 94.9861C1.6204 95.0874 1.64934 95.2032 1.83742 95.4057C2.03997 95.6083 2.21359 95.6517 2.60422 95.5793C2.87911 95.5359 3.1974 95.4057 3.31315 95.3044C3.41442 95.2176 3.61697 94.9283 3.74718 94.6968C3.94973 94.3206 3.97867 93.5537 3.97867 88.5476C3.97867 83.3389 3.94973 82.7891 3.71825 82.4274C3.54463 82.1525 3.29868 82.0078 2.87911 81.921C2.54635 81.8631 2.25699 81.7763 2.22805 81.704Z" fill="#80B422"/>
<path fill-rule="evenodd" clip-rule="evenodd" d="M73.8873 17.2176C73.9886 17.2176 76.0286 18.7368 78.4013 20.5888C80.7885 22.4263 84.6659 25.4357 87.0242 27.2732C89.3824 29.1108 91.379 30.6589 91.4513 30.7457C91.5237 30.8325 91.5671 32.8726 91.5092 39.6728L87.4582 36.4463C85.2302 34.6811 82.8574 32.7858 82.1774 32.236C81.4974 31.7006 80.8608 31.2521 80.774 31.2521C80.6728 31.2521 79.8626 31.7874 78.98 32.4385C78.0975 33.1041 75.6813 34.8982 69.8797 39.2098L68.2593 38.0957C67.3623 37.488 66.1759 36.6778 65.6117 36.2872C65.0474 35.911 62.8049 34.3773 60.6203 32.887C58.4356 31.3823 56.6416 30.0946 56.6416 29.9933C56.6416 29.9065 57.9003 28.9082 59.4484 27.7652C60.9964 26.6222 64.0202 24.3795 66.1759 22.788C68.3317 21.182 70.9069 19.2866 71.8908 18.5487C72.8746 17.8108 73.7716 17.2176 73.8873 17.2176ZM111.634 83.0496C111.967 83.0496 111.981 83.093 112.054 85.0028L113.11 85.0318C114.123 85.0752 114.151 85.0896 114.151 85.4369C114.151 85.7841 114.123 85.7986 111.981 85.7986L112.025 88.5331C112.054 91.0362 112.083 91.2966 112.343 91.5716C112.502 91.7452 112.806 91.8899 113.037 91.8754C113.254 91.8754 113.602 91.803 113.833 91.7307C114.05 91.6439 114.311 91.6149 114.412 91.6584C114.542 91.7018 114.542 91.8175 114.441 92.0201C114.368 92.1792 113.992 92.4541 113.616 92.6133C113.095 92.8448 112.748 92.9027 112.271 92.8448C111.909 92.8014 111.46 92.7001 111.258 92.6133C111.055 92.512 110.795 92.295 110.679 92.1213C110.506 91.8754 110.448 91.1375 110.317 85.8709L109.811 85.7986C109.536 85.7552 109.305 85.6394 109.305 85.5526C109.305 85.4513 109.319 85.2922 109.348 85.2198C109.363 85.1475 109.58 85.0752 109.811 85.0752C110.1 85.0752 110.39 84.9449 110.607 84.7134C110.809 84.5109 111.041 84.0624 111.128 83.7006C111.258 83.1508 111.345 83.0496 111.634 83.0496ZM105.152 84.8003C105.398 84.7858 105.832 84.8726 106.093 84.9883C106.339 85.0896 106.701 85.3356 106.86 85.5237C107.033 85.7118 107.236 86.1024 107.337 86.3773C107.438 86.6667 107.496 87.8242 107.496 89.1264C107.496 90.6166 107.554 91.4847 107.684 91.7307C107.771 91.9188 108.017 92.1213 108.22 92.1648C108.422 92.2082 108.596 92.3384 108.625 92.4541C108.654 92.6422 108.335 92.6712 106.7 92.6712C105.037 92.6712 104.747 92.6422 104.776 92.4541C104.805 92.3384 104.964 92.2226 105.152 92.2082C105.326 92.1792 105.572 92.0201 105.688 91.8464C105.861 91.586 105.905 91.0507 105.905 89.3434C105.89 88.0702 105.818 86.9705 105.717 86.6667C105.586 86.305 105.369 86.0735 104.935 85.842C104.4 85.5526 104.241 85.5382 103.85 85.6684C103.59 85.7697 103.185 86.0156 102.939 86.2471C102.707 86.4641 102.418 86.8982 102.331 87.202C102.23 87.5059 102.143 88.5042 102.143 89.4591C102.143 90.6456 102.201 91.2966 102.36 91.6584C102.476 91.9333 102.693 92.2226 102.838 92.3094C103.011 92.4107 102.736 92.4397 101.854 92.4397C101.174 92.4252 100.581 92.3963 100.523 92.3673C100.45 92.3384 100.494 92.2082 100.595 92.0924C100.682 91.9622 100.812 91.8609 100.884 91.8754C100.942 91.8754 100.957 91.9767 100.913 92.0924C100.87 92.2082 100.913 92.2805 100.986 92.2371C101.072 92.1937 101.101 91.803 101.058 91.2966C101 90.66 101.029 90.4285 101.174 90.4285C101.29 90.4285 101.275 90.3851 101.13 90.2983C100.942 90.1826 100.942 90.1392 101.13 89.9077C101.261 89.763 101.275 89.6906 101.174 89.7485C101.029 89.8208 100.986 89.5893 101 88.7357C101 88.0846 101.072 87.5203 101.174 87.4046C101.304 87.231 101.304 87.2165 101.174 87.2888C101.044 87.3612 100.971 87.2454 100.957 86.8837C100.928 86.6088 100.957 86.3773 101.029 86.3773C101.087 86.3773 100.971 86.2326 100.783 86.059C100.581 85.8709 100.465 85.6539 100.523 85.5671C100.581 85.4803 100.928 85.3356 101.318 85.2488C101.695 85.1475 102.027 85.0752 102.071 85.0752C102.114 85.0752 102.158 85.2488 102.187 85.4658C102.201 85.7262 102.302 85.8854 102.476 85.8999C102.606 85.9288 102.895 85.7841 103.127 85.5816C103.344 85.379 103.778 85.1186 104.096 85.0028C104.415 84.9015 104.892 84.8003 105.152 84.8003ZM118.492 84.7858C119.013 84.7858 119.664 84.8726 119.939 84.9883C120.214 85.1041 120.59 85.3501 120.763 85.5382C120.937 85.7118 121.139 86.0446 121.226 86.276C121.313 86.4931 121.385 87.694 121.385 88.9817C121.385 90.2549 121.458 91.4269 121.53 91.586C121.646 91.8175 121.776 91.8609 122.253 91.803C122.702 91.7452 122.832 91.7741 122.832 91.9477C122.832 92.0635 122.615 92.3094 122.369 92.4831C122.051 92.7001 121.675 92.8158 121.284 92.8158C120.821 92.8158 120.59 92.729 119.866 92.0056L119.215 92.3673C118.854 92.5699 118.246 92.7724 117.841 92.8158C117.392 92.8737 116.9 92.8303 116.539 92.7146C116.177 92.5988 115.859 92.3528 115.642 92.0201C115.425 91.7018 115.309 91.2966 115.309 90.9349C115.309 90.6166 115.425 90.1247 115.569 89.8498C115.7 89.5604 116.061 89.2132 116.394 89.0251C116.712 88.8514 117.305 88.6344 117.696 88.5621C118.101 88.4753 118.723 88.374 119.794 88.2582V87.6506C119.794 87.3033 119.751 86.8114 119.693 86.5365C119.62 86.2616 119.418 85.8854 119.215 85.6828C118.897 85.379 118.752 85.3501 118.13 85.4079C117.595 85.4658 117.334 85.5671 117.146 85.8131C117.002 86.0156 116.929 86.2616 116.987 86.3773C117.045 86.4931 117.103 86.739 117.132 86.9271C117.175 87.1442 117.074 87.3178 116.814 87.5059C116.524 87.694 116.351 87.7229 116.061 87.6072C115.859 87.5203 115.642 87.2888 115.569 87.0718C115.483 86.7824 115.526 86.5075 115.714 86.1314C115.902 85.7262 116.177 85.4803 116.77 85.1764C117.378 84.8726 117.754 84.7858 118.492 84.7858ZM117.363 89.7485C117.132 89.98 117.045 90.226 117.045 90.689C117.045 91.0941 117.132 91.3835 117.334 91.586C117.494 91.7452 117.768 91.8754 117.957 91.8754C118.13 91.8754 118.506 91.803 118.781 91.7162C119.056 91.615 119.403 91.4413 119.548 91.3111C119.751 91.123 119.808 90.8626 119.794 90.0379V88.9817C119.071 88.9961 118.593 89.083 118.275 89.1987C117.957 89.3144 117.551 89.5604 117.363 89.7485Z" fill="#147532"/>
<path fill-rule="evenodd" clip-rule="evenodd" d="M80.7022 34.739C80.789 34.7245 82.4817 35.9978 84.4638 37.5749C86.4315 39.1375 88.8331 41.0328 91.5965 43.1887L91.5242 46.7335C91.4808 48.8459 91.365 50.9438 91.2204 51.9421C91.0901 52.8537 90.8586 54.0835 90.6995 54.6622C90.5548 55.2265 90.2655 56.1091 90.0774 56.6155C89.8893 57.1074 89.5276 57.9321 89.2672 58.453C89.0068 58.9739 88.4425 59.9433 87.994 60.6233C87.5455 61.3033 86.7498 62.2727 86.2289 62.7936C85.5779 63.4591 84.8979 63.951 83.9864 64.414C82.9013 64.9783 82.4383 65.1375 81.1652 65.3256C80.2103 65.4702 79.2988 65.5281 78.7056 65.4702C78.1848 65.4268 77.2444 65.2966 76.6078 65.1809C75.9712 65.0651 75.0018 64.8192 74.4376 64.6311C73.8878 64.443 72.9329 64.0668 72.3397 63.8064C71.7466 63.5459 70.5457 62.9382 69.6632 62.4608C68.7951 61.9833 67.2615 61.0429 66.2632 60.3628C65.265 59.6973 63.876 58.6845 63.1526 58.1202C62.4437 57.5559 61.4744 56.7602 61.0114 56.355C60.5629 55.9644 60.2157 55.6172 60.2591 55.6027C60.3025 55.5737 61.0259 55.9065 61.8939 56.3406C62.7475 56.7602 64.1654 57.4257 65.0335 57.8019C65.916 58.1781 67.5075 58.7713 68.5781 59.133C69.6487 59.4947 71.1823 59.9288 71.978 60.1169C72.7738 60.305 74.1048 60.5365 74.944 60.6377C75.8554 60.739 76.9839 60.768 77.7652 60.7101C78.5465 60.6377 79.5882 60.4352 80.3694 60.1892C81.2375 59.9143 81.9175 59.5815 82.3949 59.2198C82.8 58.9015 83.3353 58.3951 83.5958 58.0768C83.8562 57.773 84.189 57.0929 84.3626 56.5721C84.5072 56.0512 84.6375 55.4001 84.6375 55.1252C84.6375 54.8503 84.5362 54.1992 84.406 53.6784C84.2902 53.1575 83.9719 52.2894 83.7115 51.7251C83.3788 51.0017 82.9158 50.3651 82.1056 49.4969C81.469 48.8314 80.4996 47.9633 79.9354 47.5726C79.3856 47.182 78.4741 46.6756 77.9099 46.4441C77.3601 46.2126 76.3184 45.8653 75.595 45.6483C74.8861 45.4458 73.5116 45.1708 72.5568 45.0551C71.6019 44.9249 69.996 44.7802 67.1313 44.6355L69.8513 42.6388C71.3415 41.5392 74.3508 39.3111 76.5354 37.6906C78.7201 36.0701 80.6009 34.739 80.7022 34.739ZM30.3539 81.241L30.3973 86.1603C30.4407 90.1681 30.4986 91.1519 30.6722 91.4992C30.8024 91.7596 31.0773 91.9911 31.902 92.266L31.1786 92.3528C30.788 92.4107 30.2093 92.4975 29.9054 92.5554C29.4714 92.6422 29.3701 92.6277 29.3701 92.4541C29.3846 92.3384 29.2833 92.1503 29.1531 92.0635C28.9795 91.9043 28.8782 91.9332 28.6178 92.2081C28.4297 92.3962 28.0246 92.6277 27.7063 92.729C27.3301 92.8592 26.8382 92.9026 26.3319 92.8303C25.8399 92.7869 25.3336 92.6133 25.0008 92.3818C24.697 92.1792 24.2919 91.7741 24.0893 91.4847C23.9013 91.1809 23.6553 90.5443 23.5685 90.0668C23.4817 89.5893 23.4527 88.8804 23.5106 88.4753C23.554 88.0846 23.7421 87.4335 23.9157 87.0429C24.0893 86.6522 24.5234 86.059 24.8851 85.7262C25.2468 85.3935 25.7965 85.0462 26.1148 84.9305C26.4331 84.8292 27.0263 84.7424 27.4314 84.7279C27.8365 84.7134 28.3429 84.8147 28.5599 84.9305C28.9071 85.1186 28.965 85.1186 29.0808 84.9305C29.1676 84.8147 29.2254 84.2649 29.2254 83.7006C29.2254 83.1508 29.1386 82.5287 29.0374 82.3261C28.8927 82.0512 28.7191 81.9499 28.285 81.921C27.9667 81.8921 27.6195 81.8052 27.5327 81.7329C27.4314 81.6606 27.3735 81.5159 27.417 81.4001C27.4748 81.241 27.8076 81.1976 30.3539 81.241ZM25.6808 86.5943C25.4638 87.0573 25.4059 87.4625 25.4059 88.6199C25.4059 89.6617 25.4783 90.2115 25.6519 90.5732C25.7821 90.8481 25.9702 91.1953 26.0714 91.3256C26.1727 91.4558 26.4621 91.6439 26.6936 91.7307C27.0408 91.8754 27.2867 91.8609 27.9957 91.6439C28.4731 91.5137 28.9505 91.2966 29.0518 91.1664C29.182 91.0073 29.2254 90.2838 29.2399 88.6923C29.2399 86.7535 29.1965 86.4063 28.9795 86.1024C28.8348 85.9143 28.5888 85.7407 28.4297 85.6973C28.2706 85.6684 27.8799 85.6105 27.5616 85.5671C27.171 85.5237 26.8238 85.5815 26.4765 85.7552C26.1727 85.9143 25.8544 86.2326 25.6808 86.5943ZM34.5496 81.458C34.7232 81.458 34.9692 81.5593 35.0849 81.675C35.2007 81.7908 35.302 81.9933 35.302 82.1091C35.302 82.2248 35.2441 82.4563 35.1573 82.6155C35.0608 82.8084 34.8679 82.9049 34.5786 82.9049C34.3471 82.9049 34.0432 82.7891 33.913 82.6589C33.7539 82.4853 33.7105 82.2827 33.7828 82.0367C33.8407 81.8342 33.9564 81.6316 34.0577 81.5738C34.1445 81.5159 34.3615 81.458 34.5496 81.458ZM12.052 84.7134C12.5006 84.7568 13.1371 84.916 13.4554 85.0751C13.8605 85.2777 14.121 85.5381 14.3235 85.9867C14.5695 86.5075 14.6129 86.9127 14.6129 88.9817C14.6129 90.8192 14.6563 91.4413 14.8154 91.6583C15.0035 91.9188 15.0758 91.9332 15.4665 91.7741C15.8426 91.6149 15.9294 91.6149 15.9873 91.803C16.0307 91.9188 15.9728 92.1213 15.886 92.2516C15.7848 92.3818 15.5243 92.5843 15.3073 92.6856C15.0758 92.8014 14.6707 92.8882 14.3958 92.8882C14.0486 92.8882 13.7593 92.7724 13.0359 92.0924L12.1967 92.4975C11.6373 92.7676 11.1309 92.8978 10.6776 92.8882C10.287 92.8882 9.75165 92.7869 9.47676 92.6711C9.1006 92.512 8.89805 92.2805 8.66656 91.7741C8.43508 91.2388 8.39167 90.9494 8.47848 90.5009C8.53635 90.1826 8.75337 89.734 8.95592 89.5025C9.15847 89.271 9.59251 88.9527 9.9108 88.7936C10.2291 88.6489 11.0248 88.4463 12.8767 88.1859V87.3612C12.8767 86.8982 12.8188 86.3628 12.732 86.1603C12.6597 85.9577 12.3559 85.6828 12.0665 85.5526C11.6035 85.3211 11.5023 85.3066 10.9525 85.5092C10.3448 85.7262 10.3448 85.7262 10.3448 86.4641C10.3448 86.9127 10.258 87.2888 10.1278 87.448C10.0121 87.5782 9.73719 87.694 9.52017 87.6795C9.28868 87.6795 9.01379 87.5782 8.89805 87.4625C8.78231 87.3467 8.68103 87.0139 8.68103 86.739C8.68103 86.3629 8.81124 86.0879 9.15847 85.7118C9.43336 85.3935 9.92527 85.0896 10.4172 84.916C11.0104 84.7134 11.4299 84.6556 12.052 84.7134ZM10.6776 89.734C10.3738 90.0379 10.2725 90.2838 10.2725 90.6889C10.2725 90.9783 10.3304 91.2966 10.3882 91.3979C10.4461 91.4847 10.6487 91.6294 10.8512 91.7017C11.0538 91.7886 11.4299 91.803 11.7193 91.7452C11.9942 91.6873 12.3703 91.5426 12.544 91.4268C12.7754 91.2822 12.8767 91.0507 12.9057 90.5732C12.9346 90.2115 12.9346 89.7051 12.9346 89.4591C12.9201 89.054 12.8623 88.9817 12.5729 88.9961C12.3848 89.0106 11.9652 89.0829 11.6469 89.1697C11.3287 89.2566 10.8946 89.517 10.6776 89.734ZM21.7745 84.7424C22.0204 84.7713 22.3532 84.8871 22.5413 85.0028C22.7149 85.1186 22.903 85.3935 22.9464 85.625C23.0042 85.8564 22.9608 86.1603 22.8451 86.3773C22.7004 86.6088 22.4834 86.7535 22.2085 86.7824C21.9626 86.7969 21.6877 86.739 21.5864 86.6378C21.4851 86.5365 21.3983 86.3194 21.3694 86.1748C21.3549 86.0301 21.2247 85.8275 21.0945 85.7407C20.8919 85.6105 20.7617 85.6539 20.4434 85.8854C20.2264 86.0445 19.9226 86.4063 19.7924 86.6812C19.5754 87.0863 19.5319 87.5637 19.5319 89.3434C19.5175 91.2388 19.5609 91.5426 19.7779 91.7741C19.9226 91.9043 20.3132 92.0779 20.6604 92.1358C20.9932 92.1937 21.297 92.3239 21.3404 92.4252C21.3838 92.512 21.326 92.6277 21.2392 92.6711C21.1379 92.7145 20.0094 92.729 18.7362 92.7145C16.8265 92.6711 16.4214 92.6277 16.4214 92.4541C16.4214 92.3384 16.6094 92.2226 16.8699 92.1647C17.1013 92.1213 17.4196 91.9911 17.5643 91.8754C17.7813 91.6873 17.8103 91.3545 17.7958 89.0251C17.7958 86.5799 17.7813 86.3628 17.5064 86.0879C17.3473 85.9288 17.0579 85.7986 16.8554 85.7986C16.6528 85.7986 16.4503 85.6973 16.3924 85.5671C16.3201 85.4224 16.3635 85.2922 16.4937 85.2054C16.6094 85.133 17.0001 85.0751 17.3618 85.0751C17.7235 85.0751 18.2443 85.0173 18.5192 84.9305C18.8809 84.8292 19.0834 84.8436 19.2137 84.9739C19.3294 85.0751 19.3873 85.3211 19.3583 85.5381C19.3439 85.7552 19.3294 85.9433 19.3583 85.9433C19.3728 85.9433 19.6332 85.6828 19.9371 85.379C20.2553 85.0462 20.6604 84.7858 20.9064 84.7424C21.1524 84.699 21.543 84.699 21.7745 84.7424ZM42.9699 84.9739C43.404 85.0028 43.9682 85.1475 44.2286 85.3066C44.4891 85.4513 44.8074 85.813 44.9376 86.0879C45.1256 86.4786 45.198 87.2165 45.2703 89.1987C45.3137 90.6311 45.415 91.8898 45.4729 91.9911C45.5307 92.0779 45.7188 92.2226 45.9069 92.295C46.1239 92.3962 45.7622 92.4396 44.6337 92.4396C43.5052 92.4396 43.1435 92.3962 43.375 92.295C43.5486 92.2226 43.7946 91.9332 43.9103 91.6583C44.055 91.3111 44.1274 90.66 44.1274 89.6038C44.1274 88.7357 44.0695 87.6795 43.9827 87.2454C43.8814 86.6812 43.7078 86.3194 43.404 86.0156C43.0712 85.6828 42.8397 85.5815 42.4202 85.5815C42.1308 85.5815 41.6244 85.7262 41.3061 85.8854C40.93 86.0735 40.6261 86.3773 40.4381 86.7535C40.1921 87.2454 40.1487 87.6071 40.1487 91.7596L40.9444 92.4541L39.3964 92.4396C38.3402 92.4396 37.9496 92.3962 38.1811 92.3094C38.3691 92.2371 38.6151 92.0345 38.7308 91.8464C38.8755 91.6005 38.9189 90.877 38.9189 89.054C38.9189 87.3612 38.8611 86.4786 38.7308 86.2326C38.6296 86.0301 38.3836 85.7986 38.1955 85.6973C37.8483 85.5381 37.8772 85.5237 38.6296 85.3645C39.0636 85.2777 39.57 85.1764 39.7581 85.1475C40.0185 85.0896 40.0764 85.1475 40.1198 85.4658C40.1342 85.7262 40.2355 85.8854 40.4091 85.8999C40.5393 85.9288 40.7853 85.813 40.9444 85.6539C41.1036 85.4947 41.4508 85.2632 41.7112 85.1475C42.0006 85.0028 42.4636 84.9449 42.9699 84.9739ZM35.056 85.0896C35.2875 85.0751 35.302 85.3211 35.302 88.3016C35.302 90.9204 35.3454 91.5715 35.519 91.8464C35.6347 92.0201 35.8807 92.2226 36.0687 92.295C36.2858 92.3962 35.8662 92.4396 34.6509 92.4396C33.016 92.4396 32.9437 92.4252 33.3922 92.2371C33.6526 92.1069 33.9275 91.8464 34.0143 91.6294C34.1011 91.3834 34.1445 90.3128 34.1156 88.9093C34.0866 87.2165 34.0143 86.4786 33.8552 86.1748C33.725 85.9143 33.4356 85.6828 32.6254 85.3935L33.2764 85.3645C33.6381 85.35 34.1301 85.2777 34.3615 85.2198C34.6075 85.162 34.9113 85.1041 35.056 85.0896Z" fill="#80B422"/>
<path fill-rule="evenodd" clip-rule="evenodd" d="M65.5973 80.9082C65.9011 80.9516 65.9011 80.995 65.9734 86.276C66.0313 90.7902 66.0747 91.6149 66.2628 91.7307C66.3785 91.803 66.6534 91.8754 66.8849 91.8754C67.1743 91.8754 67.2756 91.9477 67.2756 92.1647C67.2756 92.4107 67.1309 92.4686 66.4509 92.5843C65.9879 92.6422 65.3658 92.6856 65.0764 92.6567C64.7581 92.6277 64.5267 92.5265 64.5267 92.4107C64.5411 92.3239 64.4543 92.1503 64.353 92.049C64.2084 91.9043 64.0347 91.9477 63.5139 92.2371C63.022 92.4975 62.6458 92.5988 61.9948 92.5988C61.3582 92.5988 60.9531 92.512 60.4756 92.266C59.9693 92.0056 59.7378 91.7452 59.4195 91.1375C59.0723 90.4575 59.0144 90.197 59.0289 89.1263C59.0433 88.4463 59.1157 87.665 59.2169 87.3901C59.3182 87.1007 59.5642 86.6378 59.7957 86.3339C60.0127 86.0445 60.4901 85.625 60.8807 85.3935C61.5029 85.0317 61.691 85.0028 62.9352 85.0173C63.7888 85.0317 64.353 84.9739 64.4109 84.8726C64.4688 84.7858 64.5267 84.2938 64.5267 83.773C64.5267 83.1653 64.4399 82.6589 64.2662 82.3261C64.0782 81.9499 63.8901 81.7908 62.8628 81.5159L64.0203 81.3567C64.6569 81.2699 65.2066 81.1108 65.2356 81.0239C65.2645 80.9371 65.4237 80.8793 65.5973 80.9082ZM61.1122 85.9722C60.8373 86.276 60.6059 86.7246 60.5046 87.202C60.4033 87.6216 60.331 88.2727 60.331 88.6489C60.331 89.0395 60.4322 89.7051 60.5625 90.1391C60.6927 90.5732 60.9531 91.1519 61.1412 91.3979C61.3582 91.7017 61.662 91.9043 61.9658 91.9622C62.2118 92.0056 62.6892 92.0056 63.0075 91.9477C63.3837 91.8754 63.7454 91.6728 64.0637 91.3545L64.5267 90.8626C64.5411 86.5799 64.5122 86.4207 64.2084 86.0301C64.0203 85.7986 63.7165 85.5526 63.5139 85.4803C63.3114 85.4079 63.022 85.3211 62.8628 85.2922C62.7037 85.2632 62.342 85.3066 62.0671 85.379C61.7922 85.4369 61.3582 85.7118 61.1122 85.9722ZM87.9068 81.241L88.7604 81.675C89.4259 82.0223 89.6718 82.2393 89.9467 82.7602C90.1782 83.2087 90.2795 83.6572 90.2795 84.1636C90.2795 84.5832 90.1927 85.1475 90.0914 85.3935C89.9757 85.6539 89.614 86.1169 89.2957 86.4063C88.934 86.739 88.3842 87.0429 87.9357 87.1731C87.5161 87.3033 86.7349 87.448 85.2157 87.6071V89.3723C85.2157 90.3562 85.2881 91.2822 85.3604 91.4413C85.4328 91.6005 85.7366 91.832 86.0115 91.9477C86.2864 92.0635 86.677 92.1647 86.8795 92.1647C87.14 92.1647 87.2412 92.2371 87.2412 92.4541C87.2412 92.729 87.1544 92.7435 84.3911 92.7001C81.9894 92.6711 81.5264 92.6422 81.5264 92.4541C81.5264 92.3384 81.7579 92.2081 82.1051 92.1213C82.4234 92.0635 82.7996 91.8898 82.9443 91.7596C83.1902 91.5281 83.2047 91.2098 83.1034 82.4853L82.7417 82.1814C82.5536 82.0223 82.2643 81.8776 82.1051 81.8776C81.946 81.8921 81.7145 81.8342 81.5988 81.7618C81.483 81.6895 81.4252 81.5448 81.4686 81.4291C81.5409 81.2844 82.2209 81.241 87.9068 81.241ZM85.1579 82.167L85.2157 86.8114C86.3442 86.8114 86.9374 86.6956 87.2557 86.5509C87.6319 86.4063 87.9357 86.1458 88.0804 85.8709C88.1961 85.625 88.3263 85.0751 88.3553 84.6411C88.3842 84.207 88.3263 83.5559 88.2251 83.2087C88.1238 82.8615 87.8778 82.4563 87.6753 82.3117C87.4727 82.167 86.9953 82.0078 86.5902 81.9789C86.1996 81.9355 85.7076 81.9644 85.5196 82.0367L85.1579 82.167ZM71.9632 84.7713C72.5274 84.7713 73.2797 84.8726 73.627 84.9883C74.0465 85.1186 74.5095 85.4369 74.9001 85.8564C75.3342 86.3194 75.5801 86.768 75.7537 87.3467C75.9129 87.9399 75.9563 88.4463 75.8984 89.1119C75.8405 89.6617 75.6525 90.3851 75.4354 90.8192C75.204 91.3111 74.8567 91.7307 74.4661 92.0201C74.1189 92.266 73.4967 92.5699 73.0482 92.6856C72.5129 92.8448 71.9921 92.8882 71.4568 92.8303C71.0227 92.7724 70.3717 92.5988 70.0245 92.4107C69.6628 92.2371 69.1853 91.8175 68.9683 91.4992C68.7368 91.1809 68.4619 90.6021 68.3462 90.197C68.2304 89.8064 68.1292 89.1263 68.1292 88.6778C68.1292 88.2438 68.2304 87.5927 68.3462 87.231C68.4619 86.8837 68.7513 86.3628 68.9683 86.0735C69.1998 85.7986 69.7351 85.3935 70.1691 85.1764C70.8057 84.8437 71.1529 84.7713 71.9632 84.7713ZM70.7623 85.9143C70.5453 86.1314 70.2849 86.5943 70.1836 86.9561C70.0534 87.3612 70.01 88.1135 70.0389 89.0395C70.0823 90.1247 70.1691 90.6311 70.3717 91.0651C70.5308 91.3834 70.8636 91.7596 71.0951 91.9043C71.4278 92.1069 71.7172 92.1503 72.2525 92.1069C72.8602 92.049 73.0482 91.9622 73.381 91.5571C73.598 91.2966 73.8295 90.7902 73.9163 90.4575C74.0031 90.1247 74.061 89.3 74.061 88.6489C74.061 87.911 73.9597 87.1876 73.8006 86.739C73.6704 86.3484 73.3955 85.9143 73.1929 85.7696C73.0048 85.6105 72.6142 85.4658 72.3248 85.4369C72.05 85.4079 71.6738 85.4079 71.4857 85.4513C71.2976 85.4947 70.9649 85.6973 70.7623 85.9143ZM94.9526 84.8147C95.8786 84.8436 96.2692 84.9015 96.3994 85.0607C96.4862 85.1909 96.8045 85.4658 97.1083 85.6828C97.3977 85.8999 97.7739 86.3194 97.9185 86.6233C98.0632 86.9271 98.2224 87.4914 98.2802 87.882C98.3236 88.2872 98.2947 89.0395 98.2224 89.5459C98.1356 90.1247 97.933 90.7179 97.7015 91.0651C97.499 91.3834 96.9637 91.9043 96.5152 92.2226C95.7194 92.7724 95.6471 92.7869 94.5331 92.8014C93.636 92.8014 93.2454 92.729 92.7969 92.4831C92.4786 92.3239 92.0446 92.0056 91.8276 91.7741C91.625 91.5426 91.3212 91.0651 91.162 90.7034C91.0029 90.3562 90.8293 89.734 90.7714 89.3289C90.728 88.9383 90.7425 88.2582 90.8293 87.8097C90.9161 87.3756 91.162 86.739 91.3935 86.4063C91.6105 86.0735 92.0156 85.6394 92.2905 85.4513C92.5799 85.2632 92.9995 85.0317 93.2309 84.9449C93.4769 84.8581 94.2437 84.8002 94.9526 84.8147ZM93.3322 85.9867C93.1586 86.1603 92.9127 86.6233 92.7969 87.0139C92.6812 87.4191 92.5799 88.157 92.5799 88.6489C92.5799 89.1408 92.6522 89.8932 92.7535 90.3128C92.8693 90.8481 93.0573 91.2243 93.4335 91.6149C93.8965 92.0779 94.0411 92.1503 94.6488 92.1503C95.1696 92.1503 95.4301 92.0779 95.7628 91.7886C96.0088 91.6005 96.2692 91.4268 96.3415 91.4268C96.4284 91.4268 96.5875 91.0941 96.7032 90.6745C96.8335 90.2549 96.9203 89.3723 96.9203 88.6778C96.9203 87.7518 96.8335 87.2599 96.5875 86.6522C96.4139 86.2182 96.2258 85.8999 96.1824 85.9288C96.1245 85.9722 95.9654 85.8999 95.8207 85.7552C95.676 85.6105 95.2854 85.4658 94.9671 85.4224C94.6488 85.3935 94.2292 85.4224 94.0267 85.5092C93.8386 85.596 93.5203 85.813 93.3322 85.9867ZM50.3771 84.9305C50.6664 84.9305 51.1873 85.0317 51.5345 85.162C51.9541 85.3356 52.2145 85.35 52.3592 85.2632C52.5472 85.133 52.5762 85.2488 52.5762 86.1024C52.5762 86.6522 52.5617 87.0863 52.5472 87.0863C52.5183 87.0863 52.3881 86.8114 52.2434 86.4786C52.0987 86.1458 51.8238 85.7262 51.6502 85.5671C51.4043 85.35 51.1149 85.2777 50.4494 85.2777C49.6681 85.2777 49.5524 85.3211 49.1618 85.7552C48.9303 86.0156 48.7422 86.3339 48.7422 86.4786C48.7422 86.6233 48.8579 86.8982 49.0026 87.0863C49.1618 87.2888 49.6681 87.6071 50.1311 87.7952C50.6085 87.9978 51.3464 88.3306 51.7804 88.5621C52.2434 88.7936 52.6919 89.1553 52.8366 89.4012C52.9813 89.6762 53.0826 90.1391 53.0826 90.6021C53.0826 91.0941 52.9957 91.4847 52.8366 91.7162C52.6919 91.9043 52.3158 92.1792 51.9975 92.3239C51.6502 92.4831 51.0715 92.5843 50.5217 92.5843C50.0154 92.5843 49.3209 92.5265 48.9592 92.4396C48.5252 92.3432 48.2358 92.3432 48.0911 92.4396C47.9031 92.5699 47.8741 92.4396 47.8452 91.4992C47.8162 90.906 47.8596 90.414 47.9175 90.414C47.9754 90.414 48.0477 90.6021 48.0911 90.8192C48.1345 91.0362 48.4239 91.4558 48.7422 91.7596C49.1039 92.1069 49.5235 92.3384 49.8707 92.3962C50.16 92.4396 50.652 92.4107 50.9558 92.3239C51.2596 92.2226 51.6068 91.9911 51.7515 91.7596C51.8817 91.5571 51.9975 91.1664 51.9975 90.906C51.9975 90.6311 51.8817 90.3128 51.7081 90.1391C51.549 89.9655 50.6809 89.4591 49.7549 89.0106C48.1924 88.2293 48.0911 88.1425 47.9031 87.5927C47.7439 87.1152 47.7439 86.9127 47.9031 86.3773C48.0043 86.0301 48.2647 85.625 48.4528 85.4658C48.6554 85.3211 49.046 85.1475 49.3209 85.0751C49.6103 85.0028 50.0732 84.9449 50.3771 84.9305Z" fill="#3D892C"/>
<path d="M43.0635 22.5297C45.0252 21.0728 47.4755 19.253 48.5253 18.4908C49.567 17.724 50.464 17.0874 50.5363 17.0729C50.5942 17.0729 51.4622 17.6082 52.4895 18.2738C53.5021 18.9392 54.7316 19.7349 55.2237 20.0533L55.2239 20.0534C55.7303 20.3573 57.1047 21.2399 58.3056 21.9922C59.4919 22.7446 60.4613 23.4101 60.4757 23.4825C60.4757 23.5404 59.5209 24.2783 58.3634 25.1464C57.206 26 54.515 27.9822 52.3882 29.5448C50.2759 31.1219 47.3678 33.2777 45.9355 34.3339C44.5216 35.3908 42.3464 36.9976 41.066 37.9434L41.0164 37.98C39.7433 38.9204 37.819 40.3528 36.7484 41.1486C35.6778 41.9299 34.7084 42.6533 34.6072 42.7401C34.448 42.8704 34.4191 41.6116 34.4335 28.9516L36.9365 27.0852C38.2965 26.0724 41.0454 24.0323 43.0275 22.5565L43.0635 22.5297Z" fill="#35AB4D"/>
<path d="M45.8632 37.8208C47.1798 36.8514 49.5235 35.1007 51.0716 33.9577C52.6197 32.8002 53.9652 31.8453 54.0375 31.8308C54.1243 31.8308 55.383 32.6411 56.8588 33.6539C58.3345 34.6667 60.0562 35.8531 60.6928 36.2872C61.3293 36.7357 63.0944 37.9366 64.5991 38.9638C66.1182 40.0056 67.3769 40.8737 67.4203 40.9171C67.4637 40.946 67.3335 41.0907 67.1454 41.2209C66.9429 41.3512 65.8433 42.1614 62.5736 44.5921L61.1991 44.4908C60.4468 44.433 59.1736 44.3027 58.3779 44.187C57.5822 44.0712 56.2801 43.8108 55.4843 43.6227C54.5005 43.3768 53.4299 42.9572 52.1567 42.3206C51.0716 41.7852 49.8563 41.0473 49.3065 40.5843C48.7568 40.1503 48.2214 39.7886 48.1057 39.7886C47.99 39.7886 47.8453 39.9043 47.8019 40.0345C47.7585 40.1792 47.6572 41.0763 47.5704 42.0312C47.4836 42.9861 47.4546 44.8381 47.5125 46.1547C47.5559 47.4714 47.7295 49.4825 47.8887 50.64C48.0623 51.7975 48.3372 53.2877 48.4963 53.9677C48.6555 54.6478 49.075 56.0802 49.4223 57.1508C49.7695 58.2215 50.4784 59.9577 50.9848 60.985C51.4912 62.0123 52.3593 63.4881 52.909 64.2694C53.4443 65.0362 54.3414 66.1647 54.9056 66.7869C55.4699 67.409 56.4681 68.3784 57.1481 68.9427C57.8281 69.507 58.7685 70.2304 59.246 70.5632C59.7234 70.8815 60.794 71.5181 61.6332 71.9522C62.4723 72.4007 63.8034 72.9939 64.5991 73.2833C65.3948 73.5727 66.5667 73.9633 68.3607 74.4697L67.2033 74.6578C66.5667 74.7591 65.0042 74.8748 63.731 74.9038C62.0238 74.9616 60.8953 74.9182 59.463 74.7301C58.3924 74.5999 56.6562 74.2671 55.629 74.0067C54.6018 73.7463 53.1695 73.2833 52.4461 72.9939C51.7371 72.7045 50.6231 72.1981 49.9865 71.8798C49.3499 71.547 48.3082 70.9683 47.6717 70.5632C47.0351 70.1725 46.0223 69.478 45.4291 69.0295C44.836 68.581 43.8087 67.6984 43.1432 67.0618C42.4632 66.4252 41.4505 65.3111 40.8718 64.6021C40.293 63.8932 39.4684 62.7502 39.0199 62.0701C38.5858 61.3901 37.9782 60.3484 37.6599 59.7552C37.3271 59.162 36.8063 58.0479 36.488 57.2955C36.1697 56.5431 35.7357 55.3712 35.5476 54.6912C35.345 54.0112 35.0412 52.7524 34.8676 51.8698C34.694 50.9872 34.5203 49.3957 34.3901 46.3717L36.9075 44.4764C38.2965 43.4346 40.3364 41.9154 41.4505 41.0907C42.5645 40.266 44.5466 38.8047 45.8632 37.8208Z" fill="#35AB4D"/>
</svg>
