<svg width="171" height="128" viewBox="0 0 171 128" fill="none" xmlns="http://www.w3.org/2000/svg">
<path d="M77.4892 4.86612C80.6626 2.40421 83.2783 0.288505 83.2783 0.192337C83.2783 0.0961683 83.4899 0 83.7591 0C84.0284 0 84.2399 0.115402 84.2399 0.250038C84.2399 0.36544 86.721 2.38497 89.7405 4.71225C92.7793 7.03952 95.6834 9.28986 96.2412 9.73223C96.7797 10.1554 98.9915 11.8864 101.165 13.5597C103.338 15.2331 106.242 17.4642 107.608 18.5412C108.973 19.5991 110.55 20.8108 111.089 21.234C111.647 21.6763 114.262 23.7151 121.763 29.5237L121.744 36.3516L117.243 32.8511C114.762 30.9085 111.897 28.6774 110.858 27.8888C109.82 27.1002 108.262 25.8885 107.396 25.1961C106.511 24.5037 104.992 23.3304 104.011 22.5611C103.03 21.811 101.376 20.5223 100.357 19.7337C99.3184 18.9259 98.3568 18.272 98.2414 18.272C98.1068 18.2912 96.7412 19.2144 95.2219 20.3492C93.7025 21.484 91.0483 23.4458 89.3559 24.696C87.6441 25.9654 85.6824 27.408 83.663 28.8505L82.0859 27.8119C81.2012 27.2349 79.8933 26.3886 79.1433 25.9077C78.3932 25.4269 76.9315 24.4844 75.8737 23.8113C74.8159 23.1381 72.4118 21.6186 70.5462 20.4261C68.6614 19.2337 67.0074 18.3104 66.892 18.3489C66.7574 18.3874 65.3726 19.3683 63.834 20.5223C62.2761 21.6571 59.0258 24.0613 56.6217 25.85C54.1984 27.658 51.2173 29.8699 50.0056 30.7739C48.794 31.6778 47.3323 32.7357 45.7744 33.8512L45.7936 29.3313L50.4287 25.7731C52.9669 23.8117 55.582 21.8118 56.2366 21.3112L56.237 21.3109C56.834 20.8405 60.1875 18.2431 63.8487 15.4074L64.5456 14.8676C68.4691 11.8095 74.2966 7.30879 77.4892 4.86612Z" fill="black"/>
<path d="M164.71 108.016C165.037 107.978 165.825 107.843 166.46 107.747C167.095 107.651 167.768 107.555 167.96 107.535C168.268 107.516 168.287 107.959 168.287 114.536C168.287 118.826 168.364 121.711 168.479 121.941C168.595 122.153 168.999 122.403 169.441 122.518C169.903 122.634 170.191 122.807 170.153 122.942C170.095 123.134 169.345 123.192 167.152 123.192C164.71 123.192 164.248 123.153 164.287 122.903C164.325 122.749 164.614 122.576 164.941 122.518C165.248 122.461 165.671 122.288 165.864 122.134C166.152 121.864 166.191 121.307 166.172 115.883C166.172 111.555 166.095 109.786 165.922 109.44C165.748 109.113 165.46 108.939 164.883 108.824C164.344 108.728 164.056 108.574 164.075 108.382C164.094 108.228 164.364 108.074 164.71 108.016Z" fill="black"/>
<path d="M2.96185 108.612C2.92338 108.536 2.90415 108.362 2.94261 108.228C2.98108 108.035 3.78885 107.978 6.6353 107.978C10.1549 107.997 10.2895 108.016 10.2895 108.382C10.2895 108.67 10.1164 108.786 9.52022 108.901C9.0971 108.959 8.57781 109.209 8.36625 109.44C8.00083 109.824 7.9816 110.17 7.88543 117.095C7.8085 123.153 7.73157 124.461 7.48155 125.019C7.30845 125.384 6.88533 126.019 6.51991 126.442C6.15449 126.846 5.5198 127.365 5.09668 127.577C4.53893 127.885 3.96195 127.981 2.98108 128C1.96174 128 1.48092 127.904 1.01934 127.615C0.673147 127.404 0.307724 127.038 0.192328 126.788C0.0961638 126.557 0 126.173 0 125.923C0 125.692 0.134629 125.307 0.288491 125.057C0.480819 124.769 0.769311 124.634 1.19243 124.634C1.53862 124.634 1.98097 124.788 2.1733 124.98C2.36563 125.153 2.51949 125.48 2.50026 125.692C2.50026 125.904 2.4041 126.173 2.30793 126.269C2.15407 126.404 2.19254 126.557 2.44256 126.827C2.71182 127.096 2.94261 127.154 3.4619 127.058C3.82732 127 4.25044 126.827 4.4043 126.692C4.53893 126.577 4.80819 126.192 4.98129 125.884C5.25054 125.384 5.28901 124.365 5.28901 117.71C5.28901 110.786 5.25055 110.055 4.94282 109.574C4.71203 109.209 4.38507 109.016 3.82732 108.901C3.38497 108.824 3.00031 108.709 2.96185 108.612Z" fill="black"/>
<path fill-rule="evenodd" clip-rule="evenodd" d="M98.2214 22.888C98.356 22.888 101.068 24.9076 104.222 27.3695C107.395 29.8121 112.55 33.8128 115.685 36.2554C118.82 38.6981 121.474 40.7561 121.57 40.8715C121.666 40.9869 121.724 43.6989 121.647 52.7387L116.262 48.4496C113.3 46.1031 110.146 43.5835 109.242 42.8526C108.338 42.1409 107.492 41.5447 107.376 41.5447C107.242 41.5447 106.164 42.2563 104.991 43.1218C103.818 44.0066 100.606 46.3916 92.8939 52.1232L90.7398 50.6422C89.5474 49.8344 87.9703 48.7573 87.2202 48.238C86.4701 47.7379 83.4891 45.6992 80.5849 43.7181C77.6808 41.7178 75.2959 40.006 75.2959 39.8714C75.2959 39.756 76.9691 38.4288 79.0271 36.9094C81.085 35.3899 85.1046 32.4087 87.9703 30.293C90.836 28.1581 94.2594 25.6384 95.5672 24.6575C96.8751 23.6766 98.0675 22.888 98.2214 22.888ZM148.4 110.401C148.842 110.401 148.861 110.459 148.957 112.998L150.361 113.036C151.708 113.094 151.746 113.113 151.746 113.575C151.746 114.036 151.708 114.056 148.861 114.056L148.919 117.691C148.957 121.018 148.996 121.364 149.342 121.73C149.554 121.961 149.957 122.153 150.265 122.134C150.554 122.134 151.015 122.038 151.323 121.941C151.612 121.826 151.958 121.788 152.092 121.845C152.265 121.903 152.265 122.057 152.131 122.326C152.035 122.538 151.535 122.903 151.035 123.115C150.342 123.422 149.881 123.499 149.246 123.422C148.765 123.365 148.169 123.23 147.9 123.115C147.63 122.98 147.284 122.692 147.13 122.461C146.899 122.134 146.823 121.153 146.649 114.152L145.976 114.056C145.611 113.998 145.303 113.844 145.303 113.729C145.303 113.594 145.322 113.382 145.361 113.286C145.38 113.19 145.669 113.094 145.976 113.094C146.361 113.094 146.746 112.921 147.034 112.613C147.303 112.344 147.611 111.748 147.727 111.267C147.9 110.536 148.015 110.401 148.4 110.401ZM139.783 112.728C140.11 112.709 140.687 112.825 141.033 112.979C141.36 113.113 141.841 113.44 142.053 113.69C142.284 113.94 142.553 114.46 142.688 114.825C142.822 115.21 142.899 116.748 142.899 118.479C142.899 120.46 142.976 121.614 143.149 121.941C143.264 122.191 143.591 122.461 143.861 122.518C144.13 122.576 144.361 122.749 144.399 122.903C144.438 123.153 144.015 123.192 141.841 123.192C139.63 123.192 139.245 123.153 139.283 122.903C139.322 122.749 139.533 122.595 139.783 122.576C140.014 122.538 140.341 122.326 140.495 122.095C140.726 121.749 140.783 121.037 140.783 118.768C140.764 117.075 140.668 115.614 140.533 115.21C140.36 114.729 140.072 114.421 139.495 114.113C138.783 113.729 138.572 113.709 138.052 113.882C137.706 114.017 137.168 114.344 136.841 114.652C136.533 114.94 136.148 115.517 136.033 115.921C135.898 116.325 135.783 117.652 135.783 118.922C135.783 120.499 135.86 121.364 136.071 121.845C136.225 122.211 136.514 122.595 136.706 122.711C136.937 122.845 136.571 122.884 135.398 122.884C134.494 122.865 133.706 122.826 133.629 122.788C133.533 122.749 133.59 122.576 133.725 122.422C133.84 122.249 134.014 122.114 134.11 122.134C134.187 122.134 134.206 122.268 134.148 122.422C134.09 122.576 134.148 122.672 134.244 122.615C134.36 122.557 134.398 122.038 134.34 121.364C134.264 120.518 134.302 120.21 134.494 120.21C134.648 120.21 134.629 120.153 134.437 120.037C134.187 119.883 134.187 119.826 134.437 119.518C134.61 119.326 134.629 119.229 134.494 119.306C134.302 119.403 134.244 119.095 134.264 117.96C134.264 117.095 134.36 116.344 134.494 116.191C134.667 115.96 134.667 115.94 134.494 116.037C134.321 116.133 134.225 115.979 134.206 115.498C134.167 115.133 134.206 114.825 134.302 114.825C134.379 114.825 134.225 114.633 133.975 114.402C133.706 114.152 133.552 113.863 133.629 113.748C133.706 113.632 134.167 113.44 134.687 113.325C135.187 113.19 135.629 113.094 135.687 113.094C135.744 113.094 135.802 113.325 135.841 113.613C135.86 113.959 135.995 114.171 136.225 114.19C136.398 114.229 136.783 114.036 137.091 113.767C137.379 113.498 137.956 113.152 138.379 112.998C138.802 112.863 139.437 112.728 139.783 112.728ZM157.516 112.709C158.208 112.709 159.074 112.825 159.439 112.979C159.805 113.132 160.305 113.459 160.536 113.709C160.766 113.94 161.036 114.383 161.151 114.69C161.266 114.979 161.363 116.575 161.363 118.287C161.363 119.98 161.459 121.537 161.555 121.749C161.709 122.057 161.882 122.114 162.516 122.038C163.113 121.961 163.286 121.999 163.286 122.23C163.286 122.384 162.997 122.711 162.67 122.942C162.247 123.23 161.747 123.384 161.228 123.384C160.612 123.384 160.305 123.269 159.343 122.307L158.478 122.788C157.997 123.057 157.189 123.326 156.651 123.384C156.054 123.461 155.4 123.403 154.92 123.249C154.439 123.095 154.016 122.768 153.727 122.326C153.439 121.903 153.285 121.364 153.285 120.884C153.285 120.46 153.439 119.806 153.631 119.441C153.804 119.056 154.285 118.595 154.727 118.345C155.15 118.114 155.939 117.825 156.458 117.729C156.997 117.614 157.824 117.479 159.247 117.325V116.517C159.247 116.056 159.189 115.402 159.112 115.037C159.016 114.671 158.747 114.171 158.478 113.902C158.054 113.498 157.862 113.459 157.035 113.536C156.324 113.613 155.977 113.748 155.727 114.075C155.535 114.344 155.439 114.671 155.516 114.825C155.593 114.979 155.67 115.306 155.708 115.556C155.766 115.844 155.631 116.075 155.285 116.325C154.9 116.575 154.67 116.614 154.285 116.46C154.016 116.344 153.727 116.037 153.631 115.748C153.516 115.363 153.573 114.998 153.823 114.498C154.073 113.959 154.439 113.632 155.227 113.229C156.035 112.825 156.535 112.709 157.516 112.709ZM156.016 119.306C155.708 119.614 155.593 119.941 155.593 120.557C155.593 121.095 155.708 121.48 155.977 121.749C156.189 121.961 156.554 122.134 156.804 122.134C157.035 122.134 157.535 122.038 157.901 121.922C158.266 121.788 158.728 121.557 158.92 121.384C159.189 121.134 159.266 120.787 159.247 119.691V118.287C158.285 118.306 157.651 118.422 157.227 118.576C156.804 118.729 156.266 119.056 156.016 119.306Z" fill="black"/>
<path fill-rule="evenodd" clip-rule="evenodd" d="M107.28 46.18C107.395 46.1608 109.646 47.8534 112.28 49.9498C114.896 52.0271 118.089 54.5467 121.762 57.4125L121.666 62.1247C121.608 64.9329 121.454 67.7217 121.262 69.0489C121.089 70.2606 120.781 71.8954 120.57 72.6648C120.377 73.4149 119.993 74.5881 119.743 75.2613C119.493 75.9153 119.012 77.0116 118.666 77.704C118.32 78.3964 117.569 79.6851 116.973 80.589C116.377 81.493 115.319 82.7817 114.627 83.4741C113.761 84.3588 112.857 85.0128 111.646 85.6283C110.203 86.3784 109.588 86.59 107.895 86.84C106.626 87.0323 105.414 87.1093 104.626 87.0323C103.933 86.9746 102.683 86.8015 101.837 86.6477C100.991 86.4938 99.7022 86.1668 98.9521 85.9168C98.2213 85.6667 96.9519 85.1667 96.1634 84.8205C95.3748 84.4743 93.7785 83.6664 92.6053 83.0317C91.4514 82.397 89.4127 81.1468 88.0856 80.2428C86.7586 79.3581 84.9122 78.0117 83.9506 77.2616C83.0082 76.5115 81.7196 75.4537 81.1041 74.9151C80.5079 74.3958 80.0463 73.9342 80.104 73.915C80.1617 73.8765 81.1234 74.3189 82.2773 74.8959C83.4121 75.4537 85.2969 76.3384 86.4508 76.8385C87.624 77.3386 89.7396 78.1271 91.1629 78.608C92.5861 79.0888 94.6248 79.6658 95.6826 79.9159C96.7404 80.1659 98.5098 80.4736 99.6253 80.6083C100.837 80.7429 102.337 80.7814 103.376 80.7044C104.414 80.6083 105.799 80.339 106.838 80.012C107.992 79.6466 108.895 79.2042 109.53 78.7234C110.069 78.3002 110.78 77.6271 111.126 77.2039C111.473 76.8 111.915 75.896 112.146 75.2036C112.338 74.5112 112.511 73.6457 112.511 73.2803C112.511 72.9148 112.377 72.0493 112.204 71.3569C112.05 70.6645 111.627 69.5105 111.28 68.7603C110.838 67.7987 110.223 66.9524 109.146 65.7984C108.299 64.9136 107.011 63.7596 106.261 63.2403C105.53 62.721 104.318 62.0478 103.568 61.7401C102.837 61.4323 101.452 60.9707 100.491 60.6822C99.5484 60.4129 97.7212 60.0475 96.4519 59.8936C95.1825 59.7205 93.0477 59.5282 89.2396 59.3359L92.8554 56.6816C94.8363 55.2199 98.8367 52.2579 101.741 50.1037C104.645 47.9495 107.145 46.18 107.28 46.18ZM40.3499 107.997L40.4076 114.536C40.4653 119.864 40.5422 121.172 40.773 121.634C40.9461 121.98 41.3115 122.288 42.4078 122.653L41.4462 122.768C40.9269 122.845 40.1576 122.961 39.7537 123.038C39.1767 123.153 39.0421 123.134 39.0421 122.903C39.0613 122.749 38.9267 122.499 38.7536 122.384C38.5228 122.172 38.3882 122.211 38.042 122.576C37.792 122.826 37.2534 123.134 36.8303 123.269C36.3303 123.442 35.6763 123.499 35.0032 123.403C34.3493 123.345 33.6761 123.115 33.2338 122.807C32.8299 122.538 32.2914 121.999 32.0221 121.614C31.7721 121.211 31.4451 120.364 31.3297 119.73C31.2143 119.095 31.1759 118.152 31.2528 117.614C31.3105 117.095 31.5605 116.229 31.7913 115.71C32.0221 115.19 32.5991 114.402 33.0799 113.959C33.5607 113.517 34.2916 113.055 34.7147 112.902C35.1378 112.767 35.9264 112.652 36.4649 112.632C37.0034 112.613 37.6766 112.748 37.965 112.902C38.4266 113.152 38.5036 113.152 38.6574 112.902C38.7728 112.748 38.8498 112.017 38.8498 111.267C38.8498 110.536 38.7344 109.709 38.5997 109.44C38.4074 109.074 38.1766 108.939 37.5996 108.901C37.1765 108.863 36.7149 108.747 36.5995 108.651C36.4649 108.555 36.388 108.362 36.4457 108.209C36.5226 107.997 36.9649 107.939 40.3499 107.997ZM34.1377 115.113C33.8492 115.729 33.7723 116.267 33.7723 117.806C33.7723 119.191 33.8685 119.922 34.0993 120.403C34.2724 120.768 34.5224 121.23 34.657 121.403C34.7916 121.576 35.1763 121.826 35.484 121.941C35.9456 122.134 36.2726 122.115 37.215 121.826C37.8497 121.653 38.4843 121.364 38.619 121.191C38.7921 120.98 38.8498 120.018 38.869 117.902C38.869 115.325 38.8113 114.863 38.5228 114.46C38.3305 114.209 38.0035 113.979 37.792 113.921C37.5804 113.883 37.0611 113.806 36.638 113.748C36.1187 113.69 35.6571 113.767 35.1955 113.998C34.7916 114.209 34.3685 114.633 34.1377 115.113ZM45.9274 108.286C46.1582 108.286 46.4852 108.42 46.639 108.574C46.7929 108.728 46.9275 108.997 46.9275 109.151C46.9275 109.305 46.8506 109.613 46.7352 109.824C46.607 110.081 46.3505 110.209 45.9659 110.209C45.6582 110.209 45.2543 110.055 45.0812 109.882C44.8696 109.651 44.8119 109.382 44.9081 109.055C44.985 108.786 45.1389 108.516 45.2735 108.439C45.3889 108.362 45.6774 108.286 45.9274 108.286ZM16.0205 112.613C16.6167 112.671 17.4629 112.882 17.886 113.094C18.4246 113.363 18.7707 113.709 19.04 114.306C19.367 114.998 19.4247 115.537 19.4247 118.287C19.4247 120.73 19.4824 121.557 19.6939 121.845C19.9439 122.191 20.0401 122.211 20.5594 121.999C21.0594 121.788 21.1748 121.788 21.2518 122.038C21.3095 122.191 21.2325 122.461 21.1171 122.634C20.9825 122.807 20.6363 123.076 20.3478 123.211C20.0401 123.365 19.5016 123.48 19.1362 123.48C18.6746 123.48 18.2899 123.326 17.3283 122.422L16.2128 122.961C15.4691 123.32 14.796 123.493 14.1933 123.48C13.6741 123.48 12.9625 123.345 12.597 123.192C12.097 122.98 11.8277 122.672 11.52 121.999C11.2123 121.287 11.1546 120.903 11.27 120.307C11.3469 119.883 11.6354 119.287 11.9047 118.979C12.1739 118.672 12.7509 118.249 13.174 118.037C13.5971 117.845 14.6549 117.575 17.1167 117.229V116.133C17.1167 115.517 17.0398 114.806 16.9244 114.536C16.8282 114.267 16.4244 113.902 16.0397 113.729C15.4242 113.421 15.2896 113.402 14.5588 113.671C13.751 113.959 13.751 113.959 13.751 114.94C13.751 115.537 13.6356 116.037 13.4625 116.248C13.3086 116.421 12.9432 116.575 12.6547 116.556C12.347 116.556 11.9816 116.421 11.8277 116.267C11.6739 116.114 11.5392 115.671 11.5392 115.306C11.5392 114.806 11.7123 114.44 12.1739 113.94C12.5393 113.517 13.1932 113.113 13.8472 112.882C14.6357 112.613 15.1935 112.536 16.0205 112.613ZM14.1933 119.287C13.7895 119.691 13.6548 120.018 13.6548 120.557C13.6548 120.941 13.7318 121.364 13.8087 121.499C13.8856 121.614 14.1549 121.807 14.4241 121.903C14.6934 122.018 15.1935 122.038 15.5781 121.961C15.9435 121.884 16.4436 121.691 16.6744 121.538C16.9821 121.345 17.1167 121.037 17.1552 120.403C17.1937 119.922 17.1937 119.249 17.1937 118.922C17.1744 118.383 17.0975 118.287 16.7128 118.306C16.4628 118.325 15.9051 118.422 15.4819 118.537C15.0588 118.652 14.4818 118.999 14.1933 119.287ZM28.9449 112.652C29.2718 112.69 29.7142 112.844 29.9642 112.998C30.195 113.152 30.445 113.517 30.5027 113.825C30.5797 114.133 30.522 114.536 30.3681 114.825C30.1758 115.133 29.8873 115.325 29.5219 115.364C29.1949 115.383 28.8295 115.306 28.6949 115.171C28.5602 115.037 28.4448 114.748 28.4064 114.556C28.3871 114.363 28.214 114.094 28.0409 113.979C27.7717 113.806 27.5986 113.863 27.1755 114.171C26.887 114.383 26.4831 114.863 26.31 115.229C26.0215 115.767 25.9638 116.402 25.9638 118.768C25.9446 121.287 26.0023 121.691 26.2908 121.999C26.4831 122.172 27.0024 122.403 27.464 122.48C27.9063 122.557 28.3102 122.73 28.3679 122.865C28.4256 122.98 28.3487 123.134 28.2333 123.192C28.0986 123.249 26.5985 123.269 24.906 123.249C22.3673 123.192 21.8288 123.134 21.8288 122.903C21.8288 122.749 22.0788 122.595 22.425 122.518C22.7327 122.461 23.1558 122.288 23.3481 122.134C23.6366 121.884 23.6751 121.441 23.6559 118.345C23.6559 115.094 23.6366 114.806 23.2712 114.44C23.0597 114.229 22.675 114.056 22.4057 114.056C22.1365 114.056 21.8672 113.921 21.7903 113.748C21.6941 113.556 21.7518 113.382 21.9249 113.267C22.0788 113.171 22.5981 113.094 23.0789 113.094C23.5597 113.094 24.2521 113.017 24.6175 112.902C25.0983 112.767 25.3676 112.786 25.5407 112.959C25.6945 113.094 25.7715 113.421 25.733 113.709C25.7138 113.998 25.6945 114.248 25.733 114.248C25.7522 114.248 26.0984 113.902 26.5023 113.498C26.9254 113.055 27.464 112.709 27.7909 112.652C28.1179 112.594 28.6372 112.594 28.9449 112.652ZM57.1209 112.959C57.6979 112.998 58.4479 113.19 58.7941 113.402C59.1403 113.594 59.5634 114.075 59.7365 114.44C59.9866 114.96 60.0827 115.941 60.1789 118.576C60.2366 120.48 60.3712 122.153 60.4481 122.288C60.5251 122.403 60.7751 122.595 61.0251 122.692C61.3136 122.826 60.8328 122.884 59.3327 122.884C57.8325 122.884 57.3517 122.826 57.6594 122.692C57.8902 122.595 58.2172 122.211 58.371 121.845C58.5633 121.384 58.6595 120.518 58.6595 119.114C58.6595 117.96 58.5826 116.556 58.4672 115.979C58.3325 115.229 58.1018 114.748 57.6979 114.344C57.2555 113.902 56.9478 113.767 56.39 113.767C56.0054 113.767 55.3322 113.959 54.9091 114.171C54.4091 114.421 54.0052 114.825 53.7551 115.325C53.4282 115.979 53.3705 116.46 53.3705 121.98L54.4283 122.903L52.3704 122.884C50.9664 122.884 50.4471 122.826 50.7548 122.711C51.0049 122.615 51.3318 122.345 51.4857 122.095C51.678 121.768 51.7357 120.807 51.7357 118.383C51.7357 116.133 51.6588 114.96 51.4857 114.633C51.3511 114.363 51.0241 114.056 50.7741 113.921C50.3125 113.709 50.3509 113.69 51.3511 113.479C51.928 113.363 52.6012 113.229 52.8512 113.19C53.1974 113.113 53.2743 113.19 53.332 113.613C53.3513 113.959 53.4859 114.171 53.7167 114.19C53.8898 114.229 54.2167 114.075 54.4283 113.863C54.6399 113.652 55.1014 113.344 55.4476 113.19C55.8323 112.998 56.4477 112.921 57.1209 112.959ZM46.6006 113.113C46.9083 113.094 46.9275 113.421 46.9275 117.383C46.9275 120.864 46.9852 121.73 47.216 122.095C47.3699 122.326 47.6968 122.595 47.9469 122.692C48.2353 122.826 47.6776 122.884 46.062 122.884C43.8887 122.884 43.7926 122.865 44.3888 122.615C44.735 122.441 45.1004 122.095 45.2158 121.807C45.3312 121.48 45.3889 120.057 45.3504 118.191C45.312 115.941 45.2158 114.96 45.0042 114.556C44.8311 114.209 44.4465 113.902 43.3695 113.517L44.2349 113.479C44.7157 113.459 45.3697 113.363 45.6774 113.286C46.0043 113.209 46.4082 113.132 46.6006 113.113Z" fill="black"/>
<path fill-rule="evenodd" clip-rule="evenodd" d="M87.2018 107.555C87.6057 107.612 87.6057 107.67 87.7019 114.69C87.7788 120.691 87.8365 121.788 88.0865 121.941C88.2404 122.038 88.6058 122.134 88.9135 122.134C89.2982 122.134 89.4328 122.23 89.4328 122.518C89.4328 122.845 89.2405 122.922 88.3366 123.076C87.7211 123.153 86.8941 123.211 86.5094 123.172C86.0863 123.134 85.7786 122.999 85.7786 122.845C85.7978 122.73 85.6824 122.499 85.5478 122.365C85.3555 122.172 85.1247 122.23 84.4323 122.615C83.7784 122.961 83.2783 123.095 82.4129 123.095C81.5666 123.095 81.0281 122.98 80.3934 122.653C79.7203 122.307 79.4126 121.961 78.9894 121.153C78.5278 120.249 78.4509 119.903 78.4702 118.479C78.4894 117.575 78.5855 116.537 78.7202 116.171C78.8548 115.787 79.1818 115.171 79.4895 114.767C79.778 114.383 80.4127 113.825 80.9319 113.517C81.759 113.036 82.009 112.998 83.663 113.017C84.7977 113.036 85.5478 112.959 85.6247 112.825C85.7017 112.709 85.7786 112.055 85.7786 111.363C85.7786 110.555 85.6632 109.882 85.4324 109.44C85.1824 108.939 84.9324 108.728 83.5668 108.362L85.1055 108.151C85.9517 108.035 86.6825 107.824 86.721 107.708C86.7595 107.593 86.971 107.516 87.2018 107.555ZM81.2397 114.286C80.8742 114.69 80.5665 115.287 80.4319 115.921C80.2973 116.479 80.2011 117.345 80.2011 117.845C80.2011 118.364 80.3357 119.249 80.5088 119.826C80.6819 120.403 81.0281 121.172 81.2781 121.499C81.5666 121.903 81.9705 122.172 82.3744 122.249C82.7014 122.307 83.336 122.307 83.7592 122.23C84.2592 122.134 84.74 121.864 85.1632 121.441L85.7786 120.787C85.7978 115.094 85.7594 114.883 85.3555 114.363C85.1055 114.056 84.7016 113.729 84.4323 113.632C84.163 113.536 83.7784 113.421 83.5668 113.382C83.3553 113.344 82.8745 113.402 82.509 113.498C82.1436 113.575 81.5666 113.94 81.2397 114.286ZM116.859 107.997L117.993 108.574C118.878 109.036 119.205 109.324 119.571 110.017C119.878 110.613 120.013 111.209 120.013 111.882C120.013 112.44 119.898 113.19 119.763 113.517C119.609 113.863 119.128 114.479 118.705 114.863C118.224 115.306 117.493 115.71 116.897 115.883C116.339 116.056 115.301 116.248 113.281 116.46V118.806C113.281 120.114 113.378 121.345 113.474 121.557C113.57 121.768 113.974 122.076 114.339 122.23C114.705 122.384 115.224 122.518 115.493 122.518C115.839 122.518 115.974 122.615 115.974 122.903C115.974 123.269 115.859 123.288 112.185 123.23C108.993 123.192 108.377 123.153 108.377 122.903C108.377 122.749 108.685 122.576 109.146 122.461C109.57 122.384 110.07 122.153 110.262 121.98C110.589 121.672 110.608 121.249 110.473 109.651L109.993 109.247C109.743 109.036 109.358 108.843 109.146 108.843C108.935 108.863 108.627 108.786 108.473 108.689C108.319 108.593 108.242 108.401 108.3 108.247C108.396 108.055 109.3 107.997 116.859 107.997ZM113.205 109.228L113.281 115.402C114.782 115.402 115.57 115.248 115.993 115.056C116.493 114.863 116.897 114.517 117.09 114.152C117.243 113.825 117.416 113.094 117.455 112.517C117.493 111.94 117.417 111.074 117.282 110.613C117.147 110.151 116.82 109.613 116.551 109.42C116.282 109.228 115.647 109.016 115.109 108.978C114.589 108.92 113.935 108.959 113.685 109.055L113.205 109.228ZM95.6642 112.69C96.4143 112.69 97.4144 112.825 97.876 112.979C98.4338 113.152 99.0492 113.575 99.5685 114.133C100.145 114.748 100.472 115.344 100.703 116.114C100.915 116.902 100.972 117.575 100.896 118.46C100.819 119.191 100.569 120.153 100.28 120.73C99.9724 121.384 99.5108 121.941 98.9915 122.326C98.5299 122.653 97.7029 123.057 97.1067 123.211C96.3951 123.422 95.7027 123.48 94.9911 123.403C94.4141 123.326 93.5486 123.095 93.0871 122.845C92.6062 122.615 91.9716 122.057 91.6831 121.634C91.3753 121.211 91.0099 120.441 90.8561 119.903C90.7022 119.383 90.5676 118.479 90.5676 117.883C90.5676 117.306 90.7022 116.441 90.8561 115.96C91.0099 115.498 91.3946 114.806 91.6831 114.421C91.9908 114.056 92.7024 113.517 93.2794 113.229C94.1256 112.786 94.5872 112.69 95.6642 112.69ZM94.0679 114.209C93.7794 114.498 93.4332 115.113 93.2986 115.594C93.1255 116.133 93.0678 117.133 93.1063 118.364C93.164 119.806 93.2794 120.48 93.5486 121.057C93.7602 121.48 94.2026 121.98 94.5103 122.172C94.9526 122.441 95.3373 122.499 96.0489 122.441C96.8567 122.365 97.1067 122.249 97.5491 121.711C97.8375 121.364 98.1453 120.691 98.2607 120.249C98.3761 119.806 98.453 118.71 98.453 117.845C98.453 116.864 98.3184 115.902 98.1068 115.306C97.9337 114.786 97.5683 114.209 97.299 114.017C97.049 113.806 96.5297 113.613 96.1451 113.575C95.7796 113.536 95.2796 113.536 95.0296 113.594C94.7795 113.652 94.3372 113.921 94.0679 114.209ZM126.225 112.748C127.456 112.786 127.975 112.863 128.148 113.075C128.264 113.248 128.687 113.613 129.091 113.902C129.475 114.19 129.975 114.748 130.168 115.152C130.36 115.556 130.572 116.306 130.649 116.825C130.706 117.364 130.668 118.364 130.572 119.037C130.456 119.806 130.187 120.595 129.879 121.057C129.61 121.48 128.898 122.172 128.302 122.595C127.244 123.326 127.148 123.345 125.667 123.365C124.475 123.365 123.956 123.269 123.359 122.942C122.936 122.73 122.359 122.307 122.071 121.999C121.802 121.691 121.398 121.057 121.186 120.576C120.975 120.114 120.744 119.287 120.667 118.749C120.609 118.229 120.628 117.325 120.744 116.729C120.859 116.152 121.186 115.306 121.494 114.863C121.782 114.421 122.321 113.844 122.686 113.594C123.071 113.344 123.629 113.036 123.936 112.921C124.263 112.805 125.283 112.728 126.225 112.748ZM124.071 114.306C123.84 114.536 123.513 115.152 123.359 115.671C123.206 116.21 123.071 117.191 123.071 117.845C123.071 118.499 123.167 119.499 123.302 120.057C123.456 120.768 123.706 121.268 124.206 121.788C124.821 122.403 125.013 122.499 125.821 122.499C126.514 122.499 126.86 122.403 127.302 122.018C127.629 121.768 127.975 121.537 128.071 121.537C128.187 121.537 128.398 121.095 128.552 120.537C128.725 119.98 128.841 118.806 128.841 117.883C128.841 116.652 128.725 115.998 128.398 115.19C128.168 114.613 127.918 114.19 127.86 114.229C127.783 114.286 127.571 114.19 127.379 113.998C127.187 113.806 126.667 113.613 126.244 113.556C125.821 113.517 125.263 113.556 124.994 113.671C124.744 113.786 124.321 114.075 124.071 114.306ZM66.969 112.902C67.3536 112.902 68.046 113.036 68.5076 113.209C69.0653 113.44 69.4115 113.459 69.6038 113.344C69.8539 113.171 69.8923 113.325 69.8923 114.46C69.8923 115.19 69.8731 115.767 69.8539 115.767C69.8154 115.767 69.6423 115.402 69.45 114.96C69.2577 114.517 68.8922 113.959 68.6614 113.748C68.3345 113.459 67.9498 113.363 67.0651 113.363C66.0266 113.363 65.8727 113.421 65.3534 113.998C65.0457 114.344 64.7957 114.767 64.7957 114.96C64.7957 115.152 64.9495 115.517 65.1418 115.767C65.3534 116.037 66.0266 116.46 66.642 116.71C67.2767 116.979 68.2576 117.421 68.8345 117.729C69.45 118.037 70.0462 118.518 70.2385 118.845C70.4309 119.21 70.5655 119.826 70.5655 120.441C70.5655 121.095 70.4501 121.614 70.2385 121.922C70.0462 122.172 69.5461 122.538 69.123 122.73C68.6614 122.942 67.8921 123.076 67.1613 123.076C66.4881 123.076 65.565 122.999 65.0841 122.884C64.5072 122.756 64.1225 122.756 63.9302 122.884C63.6802 123.057 63.6417 122.884 63.6032 121.634C63.5648 120.845 63.6225 120.191 63.6994 120.191C63.7763 120.191 63.8725 120.441 63.9302 120.73C63.9879 121.018 64.3725 121.576 64.7957 121.98C65.2765 122.441 65.8342 122.749 66.2958 122.826C66.6805 122.884 67.3344 122.845 67.7383 122.73C68.1422 122.595 68.6037 122.288 68.7961 121.98C68.9692 121.711 69.123 121.191 69.123 120.845C69.123 120.48 68.9692 120.057 68.7384 119.826C68.5268 119.595 67.3728 118.922 66.1419 118.325C64.0648 117.287 63.9302 117.171 63.6802 116.441C63.4686 115.806 63.4686 115.537 63.6802 114.825C63.8148 114.363 64.161 113.825 64.411 113.613C64.6803 113.421 65.1995 113.19 65.565 113.094C65.9496 112.998 66.5651 112.921 66.969 112.902Z" fill="black"/>
<path d="M57.2463 29.95C59.8541 28.0132 63.1117 25.5939 64.5072 24.5806C65.892 23.5613 67.0844 22.715 67.1806 22.6957C67.2575 22.6957 68.4115 23.4074 69.777 24.2921C71.1232 25.1768 72.7579 26.2346 73.4119 26.6578L73.412 26.6579C74.0851 27.0618 75.9122 28.235 77.5086 29.2352C79.0856 30.2353 80.3742 31.1201 80.3935 31.2163C80.3935 31.2932 79.1241 32.2741 77.5855 33.4281C76.0469 34.5629 72.4696 37.1979 69.6424 39.2752C66.8344 41.3716 62.9686 44.2374 61.0645 45.6415C59.1845 47.0469 56.2918 49.1836 54.5899 50.4408L54.5254 50.4884C52.8329 51.7386 50.275 53.6427 48.8517 54.7005C47.4285 55.7392 46.1399 56.7008 46.0053 56.8162C45.7937 56.9894 45.7553 55.316 45.7745 38.4866L49.1018 36.0054C50.9096 34.6591 54.5639 31.9471 57.1988 29.9853L57.2463 29.95Z" fill="black"/>
<path d="M60.9684 50.2768C62.7186 48.9881 65.8343 46.6609 67.8922 45.1414C69.9501 43.6027 71.7387 42.3333 71.8349 42.3141C71.9503 42.3141 73.6235 43.3912 75.5853 44.7375C77.547 46.0839 79.8357 47.661 80.682 48.238C81.5282 48.8343 83.8746 50.4307 85.8748 51.7963C87.8943 53.1811 89.5675 54.3351 89.6252 54.3928C89.6829 54.4313 89.5098 54.6236 89.2598 54.7967C88.9905 54.9698 87.5288 56.0469 83.1822 59.2782L81.3551 59.1435C80.355 59.0666 78.6625 58.8935 77.6047 58.7396C76.5469 58.5857 74.816 58.2395 73.7582 57.9895C72.4503 57.6625 71.0271 57.1048 69.3346 56.2585C67.8922 55.5468 66.2766 54.5659 65.5458 53.9504C64.8149 53.3734 64.1033 52.8926 63.9495 52.8926C63.7956 52.8926 63.6033 53.0465 63.5456 53.2196C63.4879 53.4119 63.3532 54.6044 63.2378 55.8738C63.1224 57.1432 63.084 59.6051 63.1609 61.3554C63.2186 63.1057 63.4494 65.7791 63.661 67.3178C63.8918 68.8565 64.2572 70.8376 64.4687 71.7416C64.6803 72.6456 65.2381 74.5497 65.6996 75.973C66.1612 77.3963 67.1036 79.7043 67.7768 81.0699C68.4499 82.4355 69.6039 84.3973 70.3347 85.4359C71.0464 86.4553 72.2388 87.9555 72.9889 88.7826C73.7389 89.6096 75.066 90.8983 75.9699 91.6484C76.8739 92.3985 78.124 93.3602 78.7587 93.8026C79.3934 94.2257 80.8166 95.072 81.9321 95.649C83.0476 96.2452 84.817 97.0338 85.8748 97.4185C86.9326 97.8032 88.4905 98.3225 90.8753 98.9957L89.3367 99.2457C88.4905 99.3803 86.4133 99.5342 84.7208 99.5727C82.4514 99.6496 80.9512 99.5919 79.0472 99.3419C77.624 99.1688 75.316 98.7264 73.9505 98.3802C72.585 98.034 70.6809 97.4185 69.7193 97.0338C68.7769 96.6492 67.296 95.976 66.4497 95.5528C65.6035 95.1105 64.2187 94.3411 63.3725 93.8026C62.5262 93.2833 61.1799 92.3601 60.3914 91.7638C59.6029 91.1676 58.2373 89.9943 57.3526 89.148C56.4487 88.3018 55.1024 86.8208 54.3331 85.8783C53.5638 84.9359 52.4675 83.4164 51.8713 82.5124C51.2943 81.6084 50.4865 80.2236 50.0634 79.435C49.621 78.6465 48.9287 77.1655 48.5055 76.1653C48.0824 75.1652 47.5054 73.6072 47.2554 72.7033C46.9862 71.7993 46.5823 70.1259 46.3515 68.9527C46.1207 67.7794 45.8899 65.6637 45.7168 61.6439L49.0633 59.1243C50.9096 57.7395 53.6215 55.7199 55.1024 54.6236C56.5833 53.5273 59.2182 51.5847 60.9684 50.2768Z" fill="black"/>
</svg>
